<svg xmlns="http://www.w3.org/2000/svg" height="48" viewBox="0 -960 960 960" width="48"><path d="M478-23 292-399q-78 12-135.5-37.96T99-568q0-52.165 33-102.083Q165-720 223-734q21-94 94.071-149 73.07-55 162-55Q570-938 642.5-883.5T737-735q58 14 91.5 64.543Q862-619.913 862-567.591q0 79.149-60.5 129.87Q741-387 669-399L478-23ZM265.666-487q15.593 0 31.265-5 15.673-5 22.305-12l33.811-37 25.777 27q22.82 18 52.109 22.5Q460.223-487 483-487t48.567-4.5q25.789-4.5 49.609-22.5l25.777-27 32.811 37q7.183 7.364 22.701 12.182Q677.983-487 692.933-487q30.204 0 53.636-24.836Q770-536.672 770-567.239q0-27.023-17.283-47.99-17.284-20.967-46.942-25.914l-52.653-5.139.357-29.115q-8.028-74.254-54.315-122.928Q552.876-847 480.438-847t-119.632 48.718q-47.193 48.718-54.26 123.034l-.597 29.051L254-638q-25.882 5.298-44.941 24.841Q190-593.615 190-566.81q0 30.398 23.363 55.104T265.666-487ZM478-209l103-200-6-6q-22 10-47.5 14.5t-44.605 4.5q-22.895 0-50.228-4.5Q405.333-405 386-415l-6 5 98 201Zm2-457Z"/></svg>