<svg xmlns="http://www.w3.org/2000/svg" height="48" viewBox="0 -960 960 960" width="48"><path d="M112-59v-74h100v-23h-60v-60h60v-23H112v-74h126.838q19.412 0 33.287 13.875T286-266v33q0 19.975-13.875 33.488Q258.25-186 239-186q19.25 0 33.125 13.875T286-139v33q0 19.975-13.875 33.487Q258.25-59 238.838-59H112Zm0-295v-110q0-18.1 13.512-32.05Q139.025-510 159-510h53v-24H112v-74h126.838q19.412 0 33.287 13.8T286-560v62q0 20.4-13.875 34.2Q258.25-450 239-450h-53v22h100v74H112Zm60-295v-186h-60v-68h134v254h-74Zm203 455v-91h487v91H375Zm0-242v-91h487v91H375Zm0-243v-91h487v91H375Z"/></svg>